<?xml version="1.0" standalone="no"?><!DOCTYPE svg PUBLIC "-//W3C//DTD SVG 1.1//EN" "http://www.w3.org/Graphics/SVG/1.1/DTD/svg11.dtd"><svg t="1754989140483" class="icon" viewBox="0 0 1024 1024" version="1.1" xmlns="http://www.w3.org/2000/svg" p-id="8017" xmlns:xlink="http://www.w3.org/1999/xlink" width="128" height="128"><path d="M42.053388 42.053388h939.893224v939.893224H42.053388z" fill="#F5CB93" p-id="8018"></path><path d="M21.026694 42.053388v939.893224a21.026694 21.026694 0 0 0 21.026694 21.026694h939.893224a21.026694 21.026694 0 0 0 21.026694-21.026694V42.053388a21.026694 21.026694 0 0 0-21.026694-21.026694H42.053388a21.026694 21.026694 0 0 0-21.026694 21.026694z m939.893224 0v939.893224a21.026694 21.026694 0 0 1 21.026694-21.026694H42.053388a21.026694 21.026694 0 0 1 21.026694 21.026694V42.053388a21.026694 21.026694 0 0 1-21.026694 21.026694h939.893224a21.026694 21.026694 0 0 1-21.026694-21.026694z" fill="#6E6E96" p-id="8019"></path><path d="M194.49692 202.907598h503.034218L194.49692 705.941815zM814.784394 823.195072H319.223064L814.784394 327.633741z" fill="#DFAC67" p-id="8020"></path><path d="M272.295688 272.295688h364.258037l69.38809-69.38809H202.907598v503.034217l69.38809-69.38809z" fill="#6E6E96" opacity=".2" p-id="8021"></path><path d="M194.49692 223.934292h503.034218a21.018283 21.018283 0 0 1-14.865873-35.892567L179.626842 691.075943a21.018283 21.018283 0 0 1 35.892567 14.865872V202.907598a21.022489 21.022489 0 0 1-21.022489 21.026694z m14.870078 496.869191L712.392805 217.777676a21.005667 21.005667 0 0 0 4.558587-22.914892 21.009873 21.009873 0 0 0-19.420254-12.977675H194.49692a21.026694 21.026694 0 0 0-21.026694 21.026694v503.034218a21.026694 21.026694 0 0 0 35.896772 14.857462z" fill="#6E6E96" p-id="8022"></path><path d="M821.088197 447.473281V325.526867L325.526867 821.088197h121.946414z" fill="#6E6E96" opacity=".2" p-id="8023"></path><path d="M814.784394 802.168378H319.223064a21.026694 21.026694 0 1 1 14.870078 35.892567l495.557125-495.557126a21.018283 21.018283 0 0 1-35.892567-14.870078V823.195072a21.026694 21.026694 0 0 1 21.026694-21.026694z m-14.865872-489.400509L304.357191 808.329199a21.018283 21.018283 0 0 0 14.870078 35.892567h495.557125a21.026694 21.026694 0 0 0 21.026694-21.026694V327.633741a21.018283 21.018283 0 0 0-35.892566-14.865872z" fill="#6E6E96" p-id="8024"></path><path d="M910.455852 37.848049v876.813142H37.848049v63.080082h939.893224V37.848049z" fill="#6E6E96" opacity=".15" p-id="8025"></path><path d="M63.080082 63.080082h847.37577v51.515401H63.080082zM63.080082 114.595483h47.310062V914.661191H63.080082z" fill="#FFFFFF" opacity=".19" p-id="8026"></path></svg>